<svg id="Layer_1" data-name="Layer 1" xmlns="http://www.w3.org/2000/svg" viewBox="0 0 626 417"><defs><style>.cls-1,.cls-2,.cls-4,.cls-5{fill:none;stroke-miterlimit:10;}.cls-1{stroke:#fff;}.cls-2,.cls-4,.cls-5{stroke:#335bb3;}.cls-2{stroke-width:6px;}.cls-3{fill:#335bb3;}.cls-5{stroke-width:5px;}.cls-6{fill:#100e17;}</style></defs><polyline class="cls-1" points="170.19 0 222.28 90.7 153.34 210.7 16.49 208.5 0 184.15"/><line class="cls-1" x1="8.32" y2="13.09"/><line class="cls-1" x1="17" y2="28.4"/><line class="cls-1" x1="25.68" y2="43.72"/><polyline class="cls-1" points="0 61.09 32.83 2.87 135.47 2.87 188.06 91.72 137 179.55 34.36 179.55 0 122.87"/><polyline class="cls-1" points="0 108.06 37.43 171.38 133.43 171.38 179.89 91.21 132.4 9 35.89 9 0 74.87"/><polyline class="cls-1" points="0 138.19 29.25 186.7 140.57 186.7 196.75 91.21 143.13 0"/><polyline class="cls-1" points="153.34 0 204.91 91.21 145.68 194.87 25.68 194.87 0 152.49"/><polyline class="cls-1" points="0 167.81 19.55 202.02 147.72 202.02 214.11 91.21 162.53 0"/><polygon class="cls-1" points="116.21 48 27.04 202.02 112.95 355.72 294.28 355.72 382.45 202.02 293.25 47.64 116.21 48"/><polygon class="cls-1" points="122.66 57.94 37.68 201.95 118.52 346.6 289.17 346.6 372.15 201.95 288.21 56.66 122.66 57.94"/><polygon class="cls-1" points="126.48 67.86 49.23 201.93 124.49 336.58 283.35 336.58 360.6 201.93 282.46 66.67 126.48 67.86"/><polygon class="cls-1" points="132.14 78.27 60.65 202.36 130.3 327 277.35 327 348.85 202.36 276.52 77.17 132.14 78.27"/><polygon class="cls-2" points="143.29 97.44 84.06 202.09 143.29 308.49 265.33 308.49 327.12 202.09 267.89 97.44 143.29 97.44"/><path class="cls-3" d="M269.93,120.57S256.65,140.49,258.7,141s11.23,18.89,11.23,18.89h25l11.75-19.66-12.26-19.66Z"/><polygon class="cls-3" points="87.21 52.66 107.05 85.85 87.21 123.13 45.85 123.13 29 87.89 49.23 52.66 87.21 52.66"/><polygon class="cls-2" points="306.7 375.89 405.76 202.96 306.7 30.7 107 31.4 4.58 202.96 107.47 375.89 306.7 375.89"/><path class="cls-4" d="M306.28,218.62S280.53,261,282.17,262.53s24.11,41.36,24.11,41.36l54.32,2.05,21.85-43.66L360.6,218.62Z"/><polygon class="cls-5" points="351.21 228.83 371.36 262.28 350.85 295.17 313 295.21 291.75 262.28 313 228.83 351.21 228.83"/><polygon class="cls-6" points="331.56 -0.13 371.36 72.19 451.17 72.19 493.3 0 331.56 -0.13"/><polygon class="cls-3" points="389.89 -0.13 474.21 140 609.66 141 630 101.01 626 93.35 603.6 131.94 477.98 131.17 399.85 -0.13 389.89 -0.13"/><polygon class="cls-1" points="517.81 77.17 543.09 32.36 594.4 32.36 618.91 77.17 593.64 120.57 545.38 120.57 517.81 77.17"/><polygon class="cls-5" points="531.6 77.17 549.21 109.72 589.04 109.72 608.13 78.17 588.04 43.64 551.21 43.72 531.6 77.17"/><polygon class="cls-3" points="608.13 241.47 626 241.47 626 282.06 608.13 282.06 595.94 262.28 608.13 241.47"/><polygon class="cls-3" points="348.85 397.72 377.64 397.72 389.89 417 341.64 417 348.85 397.72"/><polygon class="cls-4" points="626 360.19 599.77 360.19 569.86 417 630 417 626 360.19"/><polygon class="cls-6" points="500.19 346.6 585.98 346.6 622.75 417 461.89 417 500.19 346.6"/><polygon class="cls-6" points="53.64 275.94 134.83 275.94 179.89 344.49 136.36 417 53.64 417 12.84 344.49 53.64 275.94"/><polyline class="cls-4" points="0 318.53 25.68 318.53 42.15 347.06 25.68 371.38 4.16 371.38"/></svg>