<svg id="Layer_1" data-name="Layer 1" xmlns="http://www.w3.org/2000/svg" viewBox="0 0 630.44 417.77"><defs><style>.cls-1,.cls-2,.cls-4,.cls-6{fill:none;stroke-miterlimit:10;}.cls-1{stroke:#05d9e8;}.cls-2,.cls-4,.cls-6{stroke:#005678;}.cls-2{stroke-width:6px;}.cls-3{fill:#005678;}.cls-4{stroke-width:5px;}.cls-5{fill:#01012b;}</style></defs><polyline class="cls-1" points="170.63 0.27 222.72 90.97 152.78 206.97 16.93 206.77 0.44 183.42"/><line class="cls-1" x1="8.76" y1="0.27" x2="0.44" y2="13.35"/><line class="cls-1" x1="17.44" y1="0.27" x2="0.44" y2="28.67"/><line class="cls-1" x1="26.12" y1="0.27" x2="0.44" y2="43.99"/><polyline class="cls-1" points="0.44 61.35 33.27 3.14 136.91 3.14 188.5 91.99 137.44 179.82 34.8 179.82 0.44 123.14"/><polyline class="cls-1" points="0.44 108.33 37.87 171.65 133.87 171.65 180.33 91.48 132.84 9.27 36.33 9.27 0.44 75.14"/><polyline class="cls-1" points="0.44 138.46 29.69 186.97 141.01 186.97 197.18 91.48 143.57 0.27"/><polyline class="cls-1" points="153.78 0.27 205.35 91.48 146.12 194.14 26.12 193.14 0.44 151.76"/><polyline class="cls-1" points="0.44 167.08 19.99 200.29 150.16 200.29 214.54 91.48 162.97 0.27"/><polygon class="cls-1" points="116.65 48.27 27.48 202.29 113.39 355.99 294.72 355.99 382.89 202.29 293.69 47.91 116.65 48.27"/><polygon class="cls-1" points="123.1 58.21 38.12 202.22 118.96 346.86 289.61 346.86 372.59 202.22 288.65 56.93 123.1 58.21"/><polygon class="cls-1" points="126.92 68.13 49.67 202.19 124.93 336.85 283.79 336.85 361.04 202.19 282.9 66.94 126.92 68.13"/><polygon class="cls-1" points="132.58 78.54 61.08 202.63 130.74 327.27 277.79 327.27 349.28 202.63 276.96 77.44 132.58 78.54"/><polygon class="cls-2" points="142.73 97.7 84.5 202.35 143.73 308.76 265.77 308.76 327.56 202.35 270.33 97.7 142.73 97.7"/><path class="cls-3" d="M269.93,120.57S259,139.9,259.06,140.23c.12.7,10.87,19.66,10.87,19.66h25l9.75-19.66-10.26-19.66Z" transform="translate(0.44 0.27)"/><polygon class="cls-3" points="87.65 50.93 107.49 84.12 87.65 121.4 49.67 121.4 28.48 85.31 49.67 50.93 87.65 50.93"/><polygon class="cls-2" points="306.14 372.16 405.2 202.23 303.14 30.97 107.43 31.67 10.02 204.23 107.91 371.16 306.14 372.16"/><path class="cls-1" d="M307.28,218.62l-25.11,42.66s26.91,42.19,27.11,42.61l46.32.05,26.85-41.66L355.6,218.62Z" transform="translate(0.44 0.27)"/><polygon class="cls-4" points="351.65 229.1 371.8 262.55 351.28 295.44 313.44 295.48 292.19 262.55 313.44 229.1 351.65 229.1"/><polygon class="cls-5" points="332 0.14 371.8 72.46 451.61 72.46 493.74 0.27 332 0.14"/><polygon class="cls-3" points="390.33 0.14 474.65 140.27 610.1 140.27 630.44 101.28 626.44 93.62 604.03 131.2 478.42 131.44 400.29 0.14 390.33 0.14"/><polygon class="cls-1" points="519.25 78.44 546.52 32.63 592.84 32.63 620.35 77.44 595.08 119.84 544.82 119.84 519.25 78.44"/><polygon class="cls-4" points="532.03 77.44 549.65 109.99 589.48 109.99 608.57 78.44 588.48 43.91 551.65 43.99 532.03 77.44"/><polygon class="cls-3" points="608.57 241.74 626.44 241.74 626.44 282.33 608.57 282.33 596.38 262.55 608.57 241.74"/><polygon class="cls-3" points="352.28 397.99 378.08 397.99 390.33 417.27 342.08 417.27 352.28 397.99"/><polygon class="cls-6" points="626.44 360.46 600.21 360.46 570.3 417.27 626.44 417.27 626.44 360.46"/><polygon class="cls-5" points="500.63 346.86 586.42 346.86 623.18 417.27 462.33 417.27 500.63 346.86"/><polygon class="cls-5" points="54.08 276.2 135.27 276.2 178.33 347.76 136.8 417.27 54.08 417.27 13.28 344.76 54.08 276.2"/><polyline class="cls-6" points="0.44 318.8 26.12 318.8 42.59 347.33 26.12 371.65 0.6 371.65"/></svg>